<svg width="18" height="18" viewBox="0 0 18 18" fill="none" xmlns="http://www.w3.org/2000/svg">
<path d="M18 8.79C18 12.94 15.79 18 9.13 18C4.12461 18.0332 0.03852 14.0053 0 9C0.03852 3.99461 4.12461 -0.0332996 9.13 -3.96349e-05C11.2007 0.00764036 13.2085 0.71213 14.83 1.99996C14.942 2.09149 15.0109 2.22557 15.02 2.36996C15.0206 2.51605 14.963 2.65637 14.86 2.75996C14.209 3.35516 13.5882 3.98261 13 4.63996C12.8289 4.82826 12.5422 4.85432 12.34 4.69996C11.4161 4.01624 10.2888 3.66394 9.14 3.69996C6.18528 3.69996 3.79 6.09524 3.79 9.05C3.79 12.0047 6.18528 14.4 9.14 14.4C12.14 14.4 13.41 13.12 14.07 10.85H9.5C9.2239 10.85 9 10.6261 9 10.35V7.7C9 7.4238 9.2239 7.2 9.5 7.2H17.5C17.7302 7.1985 17.9244 7.3711 17.95 7.6C17.9871 7.9955 18.0038 8.3927 18 8.79Z" fill="#232323"/>
</svg>
